# xmcd
#
# Track frame offsets:
#	150
#	17196
#	32864
#	49425
#	66626
#	84282
#	101322
#	120722
#	137286
#	151831
#	169103
#	184977
#	202452
#	223138
#	240381
#	256266
#	274191
#	300981
#
# Disc length: 4244 seconds
#
# Revision: 0
# Processed by: cddbd v1.5.2PL0 Copyright (c) Steve Scherf et al.
# Submitted via: EasyCDDAExtractor 16.0.9.1
#
DISCID=02109212
DTITLE=Various Artist - Ibiza Party 2000
DYEAR=1999
DGENRE=Dance
TTITLE0=Kalimba De Luna (Made Famous By Garcia)
TTITLE1=Bailamos (Made Famous By Enrique Iglesias)
TTITLE2=We Are Going To Ibiza (Made Famous By Vengaboys)
TTITLE3=Funky Idea (Made Famous By Funky Connection)
TTITLE4=Russians Are Coming (Made Famous By Danko)
TTITLE5=Everytime You Go Away (Made Famous By 4 The Cause)
TTITLE6=Best Friend (Made Famous By Toy-Box)
TTITLE7=Summertimes's Crazy (Special Dance Remix) (Made Famous By Big Time)
TTITLE8=Holiday (Made Famous By Sandman)
TTITLE9=La Collegiala (Made Famous By Banditos Bonitos)
TTITLE10=Material Girl (Made Famous By Chloe)
TTITLE11=Japanese Boy '99 (Made Famous By Hollywood BLVD)
TTITLE12=Ritmo De La Noche (Made Famous By Havana)
TTITLE13=Push Push Push (Made Famous By Babylonia)
TTITLE14=Kiss Me (Made Famous By E-Rotic)
TTITLE15=Cachito Bandito (Made Famous Mr. President)
TTITLE16=Larger Than Life (Made Famous By Backstreet Boys)
TTITLE17=It's On You '99 (Made Famous By Real McCoy)
EXTD=
EXTT0=
EXTT1=
EXTT2=
EXTT3=
EXTT4=
EXTT5=
EXTT6=
EXTT7=
EXTT8=
EXTT9=
EXTT10=
EXTT11=
EXTT12=
EXTT13=
EXTT14=
EXTT15=
EXTT16=
EXTT17=
PLAYORDER=
